<svg width="150" height="150" viewBox="0 0 150 150" fill="none" xmlns="http://www.w3.org/2000/svg">
<path d="M75.0084 85.7142C89.8017 85.7142 101.794 73.7218 101.794 58.9285C101.794 44.1352 89.8017 32.1428 75.0084 32.1428C60.2151 32.1428 48.2227 44.1352 48.2227 58.9285C48.2227 73.7218 60.2151 85.7142 75.0084 85.7142Z" stroke="white" stroke-width="10.7143" stroke-linecap="round" stroke-linejoin="round"/>
<path d="M29.252 127.5C34.0331 119.652 40.7528 113.165 48.7649 108.665C56.7771 104.164 65.8122 101.8 75.002 101.8C84.1917 101.8 93.2268 104.164 101.239 108.665C109.251 113.165 115.97 119.652 120.752 127.5" stroke="white" stroke-width="10.7143" stroke-linecap="round" stroke-linejoin="round"/>
<path d="M75.0081 144.643C113.471 144.643 144.651 113.463 144.651 74.9999C144.651 36.5372 113.471 5.35706 75.0081 5.35706C36.5454 5.35706 5.36523 36.5372 5.36523 74.9999C5.36523 113.463 36.5454 144.643 75.0081 144.643Z" stroke="white" stroke-width="10.7143" stroke-linecap="round" stroke-linejoin="round"/>
</svg>
